<svg xmlns="http://www.w3.org/2000/svg" viewBox="0 0 800 800" width="800" height="800">
  <defs>
    <linearGradient id="bg" x1="0" y1="0" x2="0.7" y2="1">
      <stop offset="0%" stop-color="hsl(25 42% 84%)"/>
      <stop offset="100%" stop-color="hsl(59 38% 72%)"/>
    </linearGradient>
    <radialGradient id="glow" cx="0.5" cy="0.42" r="0.62">
      <stop offset="0%" stop-color="#ffffff" stop-opacity="0.72"/>
      <stop offset="100%" stop-color="#ffffff" stop-opacity="0"/>
    </radialGradient>
    <radialGradient id="shade" cx="0.5" cy="0.5" r="0.5">
      <stop offset="0%" stop-color="#2b2f33" stop-opacity="0.30"/>
      <stop offset="100%" stop-color="#2b2f33" stop-opacity="0"/>
    </radialGradient>
    <clipPath id="frame"><rect width="800" height="800"/></clipPath>
  </defs>

  <g clip-path="url(#frame)">
    <rect width="800" height="800" fill="url(#bg)"/>
    <rect width="800" height="800" fill="url(#glow)"/>
    <ellipse cx="400" cy="646" rx="205" ry="34" fill="url(#shade)"/>
    <g transform="rotate(-9 400 400) translate(0 6)">

      <path d="M258 352 h284 l-34 176 q-6 30 -40 30 h-136 q-34 0-40-30z" fill="#464c51"/>
      <ellipse cx="400" cy="352" rx="142" ry="34" fill="#9aa2a9"/>
      <ellipse cx="400" cy="352" rx="112" ry="26" fill="hsl(25 48% 30%)"/>
      <g fill="hsl(25 52% 46%)">
        <ellipse cx="366" cy="350" rx="26" ry="11"/>
        <ellipse cx="428" cy="356" rx="22" ry="9"/>
        <ellipse cx="400" cy="342" rx="18" ry="8"/>
      </g>
      <path d="M280 462 h240 l-8 40 H288z" fill="#2f3336" opacity="0.35"/>
      <g fill="#2f3336">
        <rect x="322" y="474" width="46" height="20" rx="6"/>
        <rect x="386" y="474" width="46" height="20" rx="6"/>
        <rect x="450" y="474" width="30" height="20" rx="6"/>
      </g>
      <path d="M244 558 h312 v40 q0 22-26 22 h-260 q-26 0-26-22z" fill="#2f3336"/>
      <rect x="196" y="392" width="70" height="22" rx="11" fill="#2f3336"/>
      <rect x="534" y="392" width="70" height="22" rx="11" fill="#2f3336"/>
    </g>
  </g>
</svg>
