<svg xmlns="http://www.w3.org/2000/svg" viewBox="0 0 800 800" width="800" height="800">
  <defs>
    <linearGradient id="bg" x1="0" y1="0" x2="0.7" y2="1">
      <stop offset="0%" stop-color="hsl(215 55% 93%)"/>
      <stop offset="100%" stop-color="hsl(249 45% 84%)"/>
    </linearGradient>
    <radialGradient id="glow" cx="0.5" cy="0.42" r="0.62">
      <stop offset="0%" stop-color="#ffffff" stop-opacity="0.72"/>
      <stop offset="100%" stop-color="#ffffff" stop-opacity="0"/>
    </radialGradient>
    <radialGradient id="shade" cx="0.5" cy="0.5" r="0.5">
      <stop offset="0%" stop-color="#2b2f33" stop-opacity="0.30"/>
      <stop offset="100%" stop-color="#2b2f33" stop-opacity="0"/>
    </radialGradient>
    <clipPath id="frame"><rect width="800" height="800"/></clipPath>
  </defs>

  <g clip-path="url(#frame)">
    <rect width="800" height="800" fill="url(#bg)"/>
    <rect width="800" height="800" fill="url(#glow)"/>
    <ellipse cx="400" cy="646" rx="205" ry="34" fill="url(#shade)"/>
    <g transform="">

      <circle cx="628" cy="196" r="52" fill="hsl(215 58% 80%)" opacity="0.85"/>
      <g stroke="hsl(215 58% 80%)" stroke-width="9" stroke-linecap="round" opacity="0.8">
        <path d="M628 116v-26M628 302v26M708 196h26M522 196h26M690 134l18-18M566 258l-18 18"/>
      </g>
      <g transform="rotate(-13 400 380)">
        <rect x="212" y="266" width="376" height="228" rx="10" fill="#464c51"/>
        <rect x="226" y="280" width="348" height="200" rx="6" fill="hsl(215 48% 30%)"/>
        <g fill="hsl(215 52% 46%)" opacity="0.92">
          <rect x="238" y="292" width="72" height="52" rx="3"/><rect x="238" y="356" width="72" height="52" rx="3"/><rect x="238" y="420" width="72" height="52" rx="3"/><rect x="322" y="292" width="72" height="52" rx="3"/><rect x="322" y="356" width="72" height="52" rx="3"/><rect x="322" y="420" width="72" height="52" rx="3"/><rect x="406" y="292" width="72" height="52" rx="3"/><rect x="406" y="356" width="72" height="52" rx="3"/><rect x="406" y="420" width="72" height="52" rx="3"/><rect x="490" y="292" width="72" height="52" rx="3"/><rect x="490" y="356" width="72" height="52" rx="3"/><rect x="490" y="420" width="72" height="52" rx="3"/>
        </g>
        <g stroke="#2f3336" stroke-width="4" opacity="0.55">
          <path d="M400 280v200M226 380h348"/>
        </g>
      </g>
      <path d="M400 490l0 92" stroke="#464c51" stroke-width="14" stroke-linecap="round"/>
      <path d="M330 640h140l-24-62h-92z" fill="#2f3336"/>
      <rect x="470" y="546" width="118" height="96" rx="12" fill="#464c51"/>
      <rect x="484" y="562" width="90" height="30" rx="5" fill="hsl(215 52% 46%)"/>
      <circle cx="502" cy="616" r="9" fill="#c3c9ce"/>
      <circle cx="530" cy="616" r="9" fill="#c3c9ce"/>
      <circle cx="558" cy="616" r="9" fill="#c3c9ce"/>
    </g>
  </g>
</svg>
